<?xml version="1.0" encoding="UTF-8" standalone="no"?>
<!-- Created with Inkscape (http://www.inkscape.org/) -->

<svg
   xmlns:dc="http://purl.org/dc/elements/1.1/"
   xmlns:cc="http://creativecommons.org/ns#"
   xmlns:rdf="http://www.w3.org/1999/02/22-rdf-syntax-ns#"
   xmlns:svg="http://www.w3.org/2000/svg"
   xmlns="http://www.w3.org/2000/svg"
   xmlns:xlink="http://www.w3.org/1999/xlink"
   xmlns:sodipodi="http://sodipodi.sourceforge.net/DTD/sodipodi-0.dtd"
   xmlns:inkscape="http://www.inkscape.org/namespaces/inkscape"
   width="145"
   height="320"
   id="svg2"
   version="1.1"
   inkscape:version="0.48.5 r10040"
   sodipodi:docname="back-hex.svg"
   inkscape:export-filename="/home/z4k/www/keplerjs/keplerjs.github.io/images/back-hex.png"
   inkscape:export-xdpi="90"
   inkscape:export-ydpi="90"
   enable-background="new">
  <defs
     id="defs4">
    <linearGradient
       inkscape:collect="always"
       id="linearGradient3895">
      <stop
         style="stop-color:#225577;stop-opacity:1;"
         offset="0"
         id="stop3897" />
      <stop
         style="stop-color:#225577;stop-opacity:0;"
         offset="1"
         id="stop3899" />
    </linearGradient>
    <linearGradient
       inkscape:collect="always"
       id="linearGradient4108">
      <stop
         style="stop-color:#225577;stop-opacity:0.60416669"
         offset="0"
         id="stop4110" />
      <stop
         style="stop-color:#225577;stop-opacity:0;"
         offset="1"
         id="stop4112" />
    </linearGradient>
    <linearGradient
       inkscape:collect="always"
       id="linearGradient4090">
      <stop
         style="stop-color:#ececec;stop-opacity:1;"
         offset="0"
         id="stop4092" />
      <stop
         style="stop-color:#ececec;stop-opacity:0;"
         offset="1"
         id="stop4094" />
    </linearGradient>
    <linearGradient
       inkscape:collect="always"
       xlink:href="#linearGradient4090"
       id="linearGradient4096"
       x1="79.903069"
       y1="-30.740503"
       x2="79.903069"
       y2="226.67992"
       gradientUnits="userSpaceOnUse"
       gradientTransform="translate(0,731.30006)" />
    <linearGradient
       inkscape:collect="always"
       xlink:href="#linearGradient4108"
       id="linearGradient4114"
       x1="82"
       y1="690.27234"
       x2="82"
       y2="845.78699"
       gradientUnits="userSpaceOnUse"
       gradientTransform="translate(-2.7e-5,0)" />
    <linearGradient
       inkscape:collect="always"
       xlink:href="#linearGradient4090-6"
       id="linearGradient4096-3"
       x1="79.903069"
       y1="-30.740503"
       x2="79.903069"
       y2="226.67992"
       gradientUnits="userSpaceOnUse"
       gradientTransform="translate(0,731.30006)" />
    <linearGradient
       inkscape:collect="always"
       id="linearGradient4090-6">
      <stop
         style="stop-color:#ececec;stop-opacity:1;"
         offset="0"
         id="stop4092-7" />
      <stop
         style="stop-color:#ececec;stop-opacity:0;"
         offset="1"
         id="stop4094-5" />
    </linearGradient>
    <linearGradient
       y2="226.67992"
       x2="79.903069"
       y1="-30.740503"
       x1="79.903069"
       gradientTransform="translate(-2.7e-5,-1.0621225)"
       gradientUnits="userSpaceOnUse"
       id="linearGradient4143"
       xlink:href="#linearGradient4090-6"
       inkscape:collect="always" />
    <linearGradient
       inkscape:collect="always"
       xlink:href="#linearGradient3895"
       id="linearGradient3901"
       x1="74"
       y1="717.36218"
       x2="74"
       y2="913.36218"
       gradientUnits="userSpaceOnUse" />
    <filter
       inkscape:collect="always"
       id="filter3784">
      <feGaussianBlur
         inkscape:collect="always"
         stdDeviation="2.9690677"
         id="feGaussianBlur3786" />
    </filter>
  </defs>
  <sodipodi:namedview
     id="base"
     pagecolor="#ffffff"
     bordercolor="#666666"
     borderopacity="1.0"
     inkscape:pageopacity="0.0"
     inkscape:pageshadow="2"
     inkscape:zoom="0.7071068"
     inkscape:cx="160.98978"
     inkscape:cy="268.96676"
     inkscape:document-units="px"
     inkscape:current-layer="layer2"
     showgrid="false"
     inkscape:snap-global="true"
     inkscape:window-width="1122"
     inkscape:window-height="937"
     inkscape:window-x="754"
     inkscape:window-y="67"
     inkscape:window-maximized="0"
     showguides="true"
     inkscape:guide-bbox="true">
    <inkscape:grid
       type="xygrid"
       id="grid3780"
       empspacing="20"
       visible="true"
       enabled="true"
       snapvisiblegridlinesonly="true" />
  </sodipodi:namedview>
  <metadata
     id="metadata7">
    <rdf:RDF>
      <cc:Work
         rdf:about="">
        <dc:format>image/svg+xml</dc:format>
        <dc:type
           rdf:resource="http://purl.org/dc/dcmitype/StillImage" />
        <dc:title></dc:title>
      </cc:Work>
    </rdf:RDF>
  </metadata>
  <g
     inkscape:label="shadow"
     inkscape:groupmode="layer"
     id="layer1"
     transform="translate(0,-732.36218)"
     style="opacity:1;display:inline">
    <path
       id="path3083"
       d="m -16.704762,706.38643 -0.45039,0.21933 -4.447565,2.21771 0,0.0243 1.069676,0.53614 1.041509,0.53615 17.53693,8.77334 0,16.32816 -17.53693,8.74896 -1.041509,0.53615 -1.069676,0.53615 4.926105,2.46141 17.19914,-8.60275 17.17099,8.60274 4.95425,-2.4614 -1.06967,-0.53615 -1.06967,-0.53615 -17.53693,-8.74897 0,-16.32816 17.53693,-8.77333 1.06967,-0.53615 1.06967,-0.53615 -4.22237,-2.12022 -0.70373,-0.34119 -17.19914,8.60275 -17.22729,-8.60275 z m 144.039262,0 -0.42223,0.21933 -4.47572,2.21771 0,0.0243 1.06967,0.53614 1.06966,0.53615 17.50879,8.77334 0,16.32816 -17.50879,8.74896 -1.06966,0.53615 -1.06967,0.53615 4.9261,2.46141 17.19914,-8.60271 17.19914,8.60275 4.9261,-2.46141 -1.06967,-0.53615 -1.06967,-0.53615 -17.53692,-8.74897 0,-16.32815 17.53692,-8.77334 1.06967,-0.53615 1.06967,-0.53614 -4.22237,-2.12023 -0.70373,-0.34119 -17.19914,8.60275 -17.22729,-8.60275 z m -30.513672,6.45814 -4.89797,2.46141 0,17.18112 -17.19914,8.60275 0,4.92282 1.04152,-0.53615 1.06967,-0.53615 17.53693,-8.74897 16.326502,8.16408 0.0281,17.5223 0,1.0723 0,1.07231 4.22237,-2.12023 0.70373,-0.34119 0,-17.20549 17.19919,-8.60275 0,-0.46303 0,-4.43542 0,-0.0243 -1.06967,0.53616 -1.06967,0.53614 -17.53693,8.74897 -16.354652,-8.16412 0,-17.52231 0,-1.0723 0,-1.04792 z m -49.09216,0.12185 0,1.07229 -0.0281,1.07231 0,17.52231 -16.32651,8.16407 -17.53693,-8.77333 -1.06967,-0.51178 -1.04152,-0.53615 0,4.92282 17.19914,8.60274 -0.0282,17.18112 4.95426,2.46141 -0.0281,-1.04793 0,-1.07229 0,-17.52231 16.35466,-8.16408 17.53693,8.74897 1.06966,0.53615 1.06967,0.53615 0,-4.21608 0,-0.70674 -17.22728,-8.60274 0,-17.20549 -0.42224,-0.21933 -4.47572,-2.24209 z m 2.44898,20.88542 0.61928,0.31682 -0.61928,-0.29244 0,-0.0243 z m 4.9261,8.84645 -0.45038,0.21934 -4.47572,2.2177 0,0.0243 1.06967,0.53615 1.06967,0.51178 17.53692,8.77334 0,16.35253 -17.53692,8.74897 -1.06967,0.53615 -1.06967,0.53614 4.9261,2.46141 17.19914,-8.60275 17.19914,8.60275 4.92611,-2.46141 -1.06967,-0.53614 -1.06967,-0.53615 -17.53693,-8.74894 0,-16.35253 17.53693,-8.77333 1.06967,-0.51178 1.06967,-0.53615 -4.22239,-2.12022 -0.70372,-0.34119 -17.19914,8.60275 -17.19914,-8.60274 z m -30.0633,5.75142 -4.92611,2.4614 0,17.18112 -17.19913,8.60275 0,4.92281 1.06966,-0.53615 1.06967,-0.53614 17.53693,-8.74897 16.32652,8.16408 0,17.52232 0,1.07228 0,1.0723 4.22237,-2.12022 0.70373,-0.34118 0,-17.2055 17.22728,-8.60274 0,-0.43867 0,-4.45978 -0.0281,0 -1.06966,0.51177 -1.04152,0.53615 -17.56508,8.74897 -16.32651,-8.16408 0,-17.5223 0,-1.0723 0,-1.04792 z m 144.039262,0 -4.92611,2.4614 0,17.18112 -17.17099,8.60275 -0.028,4.92281 1.06965,-0.53615 1.06967,-0.53614 17.53693,-8.74897 16.32651,8.16408 0.0281,17.52232 -0.0281,1.07228 0,1.0723 4.22238,-2.12022 0.70373,-0.34118 0,-17.2055 17.22729,-8.60274 0,-0.43867 0,-4.45978 -1.06967,0.51177 -1.06966,0.53615 -17.53693,8.74897 -16.35468,-8.16408 0,-17.5223 0,-1.0723 0,-1.04792 z m -193.131401,0.14622 -0.02816,1.04792 0,1.0723 0,17.52231 -16.326516,8.16408 -17.536927,-8.74897 -1.069664,-0.53615 -1.06967,-0.53615 0,4.92281 17.199137,8.60275 0,17.18113 4.926097,2.46141 0,-1.04794 0,-1.07229 0,-17.52231 16.32652,-8.16407 17.536932,8.74896 1.06966,0.53615 1.06967,0.53615 0,-4.21608 0,-0.70674 -17.19913,-8.60274 0,-17.20549 -0.450399,-0.21934 -4.447565,-2.2177 z m 144.039261,0 -0.0281,1.04792 0,1.0723 0,17.52231 -16.32653,8.16408 -17.536922,-8.74897 -1.06967,-0.53615 -1.06966,-0.53615 0,4.92281 17.199122,8.60275 0,17.18113 4.95426,2.46141 -0.0281,-1.04794 0,-1.07229 0,-17.52231 16.35467,-8.16407 17.53692,8.74896 1.06967,0.53615 1.04152,0.53615 0,-4.21608 0.0281,-0.70674 -17.22728,-8.60274 0,-17.20549 -0.45039,-0.21934 -4.44756,-2.2177 z m -141.590287,2.12022 0,18.13157 0,0.63363 -0.02816,0 0,-0.63363 0.02816,-18.13157 z m 63.588955,27.70912 -0.59113,0.31682 0,0.60926 0,18.13158 -0.0281,-18.13158 0.0281,-0.60926 0,-0.0243 0.59113,-0.29245 z m 144.067412,0 -0.61928,0.31682 0,-0.0243 0.61928,-0.29245 z m -58.71915,0.43868 -0.42223,0.21933 -4.47572,2.21771 0,0.0243 1.06967,0.53615 1.06966,0.53614 17.50879,8.77334 0,16.32816 -17.50879,8.74897 -1.06966,0.53615 -1.06967,0.53615 4.9261,2.46141 17.19914,-8.60271 17.19914,8.60276 4.9261,-2.46143 -1.06967,-0.53613 -1.06967,-0.53616 -17.53692,-8.74897 0,-16.32816 17.53692,-8.77334 1.06967,-0.53614 1.06967,-0.53615 -4.22237,-2.12022 -0.70373,-0.34119 -17.19914,8.60275 -17.22729,-8.60275 z m -144.067412,0.41429 -0.45038,0.21934 -4.447574,2.2177 0,0.0243 1.041522,0.53614 1.069667,0.53615 17.536925,8.77334 0,16.32816 -17.536925,8.74897 -1.069667,0.53615 -1.041522,0.53615 4.926104,2.4614 17.19914,-8.60275 17.17099,8.60275 4.95425,-2.4614 -1.06967,-0.53615 -1.06967,-0.53615 -17.53693,-8.74897 0,-16.32816 17.53693,-8.77334 1.06967,-0.53615 1.06967,-0.53614 -4.22237,-2.12022 -0.70373,-0.34119 -17.19914,8.60275 -17.22729,-8.60275 z m 113.55374,5.48333 -4.89797,2.46141 0,17.18113 -17.19914,8.60274 0,4.92282 1.04152,-0.53615 1.06967,-0.53615 17.53693,-8.74897 16.326502,8.16408 0.0281,17.52236 0,1.0723 0,1.0722 4.22237,-2.1202 0.70373,-0.3412 0,-17.20546 17.19919,-8.60274 0,-0.46303 0,-4.43542 0,-0.0244 -1.06967,0.53615 -1.06967,0.53615 -17.53693,8.74897 -16.354652,-8.16412 0,-17.52231 0,-1.0723 0,-1.04793 z m -49.09216,0.12186 0,1.07229 -0.0281,1.0723 0,17.5223 -16.32651,8.16409 -17.53693,-8.77333 -1.06967,-0.51178 -1.04152,-0.53615 0,4.92282 17.19914,8.60274 -0.0282,17.18113 4.95426,2.4614 -0.0281,-1.0479 0,-1.0723 0,-17.52233 16.35466,-8.18845 17.53693,8.77334 1.06966,0.53615 1.06967,0.53615 0,-4.21609 0,-0.70673 -17.22728,-8.60276 0,-17.20548 -0.42224,-0.21934 -4.47572,-2.24207 z m 7.37508,30.3655 -0.45038,0.21934 -4.47572,2.21769 0,0.0244 1.06967,0.53616 1.06967,0.53614 17.53692,8.77338 0,16.3281 -17.53692,8.749 -1.06967,0.5361 -1.06967,0.5362 4.9261,2.4614 17.19914,-8.6028 17.19914,8.6028 4.92611,-2.4614 -1.06967,-0.5362 -1.06967,-0.5361 -17.53693,-8.7489 0,-16.3282 17.53693,-8.77334 1.06967,-0.53615 1.06967,-0.53615 -4.22239,-2.12022 -0.70372,-0.34118 -17.19914,8.60273 -17.19914,-8.60275 z m 113.975962,5.6783 -4.92611,2.46141 0,17.1811 -17.17099,8.6028 -0.028,4.9228 1.06965,-0.5362 1.06967,-0.5361 17.53693,-8.749 16.32651,8.1641 0.0281,17.5223 0,1.0723 -0.0281,1.0723 4.22238,-2.1202 0.70373,-0.3412 0,-17.2055 17.22729,-8.6028 0,-0.4386 0,-4.4598 -1.06967,0.5118 -1.06966,0.5361 -17.53693,8.749 -16.35468,-8.1641 0,-17.52229 0,-1.07229 0,-1.04793 z m -49.09214,0.14622 -0.0281,1.04793 0,1.07229 0,17.52227 -16.32653,8.1641 -17.536922,-8.749 -1.06967,-0.5361 -1.06966,-0.5361 0,4.9228 17.199122,8.6027 0,17.1811 4.92611,2.4614 0,-1.0479 0,-1.0723 0,-17.5223 16.35466,-8.1641 17.53693,8.749 1.06967,0.5362 1.04152,0.5361 0,-4.2161 0.028,-0.7067 -17.22729,-8.6028 0,-17.20544 -0.45038,-0.21935 -4.44757,-2.2177 z m -94.975272,0.26808 -4.9261,2.4614 0,17.18111 -17.19914,8.6027 0,4.9229 1.06966,-0.5362 1.06968,-0.5361 17.50877,-8.749 16.35467,8.1641 0,17.5223 0,1.0723 0,1.0723 4.22237,-2.1202 0.70373,-0.3412 0,-17.2055 17.19914,-8.6028 0.0281,-0.4386 -0.0281,-4.4598 -1.06967,0.5118 -1.04152,0.5361 -17.56508,8.749 -16.32651,-8.1641 0,-17.5223 0,-1.07229 0,-1.04792 z m -49.120286,0.14622 0,1.04792 0,1.07229 0,17.52228 -16.354664,8.1641 -17.50878,-8.749 -1.069676,-0.5361 -1.069664,-0.5361 0,4.9228 17.199139,8.6027 0,17.1811 4.926103,2.4614 0,-1.0479 0,-1.0723 0,-17.5223 16.326516,-8.1641 17.536932,8.749 1.06966,0.5361 1.06967,0.5362 0,-4.2161 0,-0.7067 -17.19913,-8.6028 0,-17.20546 -0.450388,-0.21933 -4.447573,-2.2177 -0.02816,0 z m 2.477122,2.12021 0,18.13158 0,0.6336 -0.02816,0 0,-0.6092 0.02816,-18.15598 z m 4.926104,27.24608 -0.45039,0.2194 -4.447565,2.242 1.069676,0.5362 1.041509,0.5361 17.53693,8.7734 0,16.3281 -17.53693,8.7734 -1.041509,0.5117 -1.069676,0.5362 4.926105,2.4614 17.19914,-8.6028 17.17099,8.6028 4.95425,-2.4614 -1.06967,-0.5362 -1.06967,-0.5117 -17.53693,-8.7734 0,-16.3281 17.53693,-8.7734 1.06967,-0.5361 1.06967,-0.5362 -4.22237,-2.0958 -0.70373,-0.3656 -17.19914,8.6028 -17.22729,-8.6028 z m 144.039262,0 -0.42223,0.2194 -4.47572,2.242 1.06967,0.5362 1.06966,0.5361 17.50879,8.7734 0,16.3281 -17.50879,8.7734 -1.06966,0.5117 -1.06967,0.5362 4.9261,2.4614 17.19914,-8.6028 17.19914,8.6028 4.9261,-2.4614 -1.06967,-0.5362 -1.06967,-0.5117 -17.53692,-8.7734 0,-16.3281 17.53692,-8.7734 1.06967,-0.5361 1.06967,-0.5362 -4.22237,-2.0958 -0.70373,-0.3656 -17.19914,8.6028 -17.22729,-8.6028 z m 58.71915,0.049 -0.61928,0.3168 0,-0.024 0.61928,-0.2924 z m -144.095552,0.4143 -0.59114,0.3168 0,0.6093 0,18.1315 -0.0281,-18.1315 0,-0.6336 0.61929,-0.2925 z m -60.21106,1.2185 18.15621,9.0658 0.61928,0.3168 0.61928,-0.3168 18.12806,-9.0658 -18.12806,9.0902 -0.61928,0.2924 -0.61928,-0.2924 -18.15621,-9.0902 z m 144.039262,0 18.1562,9.0658 0.61929,0.3168 0.61928,-0.3168 18.12806,-9.0658 -18.12806,9.0902 -0.61928,0.2924 -0.61929,-0.2924 -18.1562,-9.0902 z m -28.965472,4.7766 -4.89797,2.4614 0,17.1811 -17.19914,8.6028 0,4.9228 1.04152,-0.5361 1.06967,-0.5362 17.53693,-8.749 16.326502,8.1641 0.0281,17.5223 0,1.0723 0,1.0723 4.22237,-2.1202 0.70373,-0.3412 0,-17.2055 17.19919,-8.6027 0,-0.4387 0,-4.4598 -1.06967,0.5118 -1.06967,0.5362 -17.53693,8.7489 -16.354652,-8.1641 0,-17.5223 0,-1.0723 0,-1.0479 z m -49.09216,0.1462 0,1.048 -0.0281,1.0723 0,17.5223 -16.32651,8.164 -17.53693,-8.7489 -1.06967,-0.5362 -1.04152,-0.5361 0,4.9228 17.19914,8.6028 -0.0282,17.1811 4.95426,2.4614 -0.0281,-1.048 0,-1.0722 0,-17.5223 16.35466,-8.1641 17.53693,8.7489 1.06967,0.5362 1.06966,0.5361 0,-4.216 0,-0.7068 -17.22728,-8.6027 0,-17.2055 -0.42224,-0.2194 -4.47572,-2.2177 z m 66.066092,29.8294 -0.61928,0.3168 0,-0.024 0.61928,-0.2925 z m -58.691012,0.2924 -0.45038,0.2194 -4.47572,2.242 1.06967,0.5362 1.06967,0.5361 17.53692,8.7734 0,16.3281 4.89796,0 0,-16.3281 17.53693,-8.7734 1.06967,-0.5361 1.06967,-0.5362 -4.22239,-2.0958 -0.70372,-0.3656 -17.19914,8.6027 -17.19914,-8.6027 z m 16.57986,10.7717 0.61928,0.2925 0.61928,-0.2925 -0.61928,0.3169 -0.61928,-0.3169 z"
       style="font-size:medium;font-style:normal;font-variant:normal;font-weight:normal;font-stretch:normal;text-indent:0;text-align:start;text-decoration:none;line-height:normal;letter-spacing:normal;word-spacing:normal;text-transform:none;direction:ltr;block-progression:tb;writing-mode:lr-tb;text-anchor:start;baseline-shift:baseline;color:#000000;fill:url(#linearGradient3901);fill-opacity:1;fill-rule:nonzero;stroke:none;stroke-width:10;marker:none;visibility:visible;display:inline;overflow:visible;enable-background:accumulate;font-family:Sans;-inkscape-font-specification:Sans;filter:url(#filter3784);opacity:0.3"
       inkscape:connector-curvature="0"
       inkscape:export-filename="/home/z4k/www/keplerjs/keplerjs.github.io/images/path3041.png"
       inkscape:export-xdpi="90"
       inkscape:export-ydpi="90" />
  </g>
  <g
     inkscape:groupmode="layer"
     id="layer2"
     inkscape:label="texture"
     style="display:inline">
    <rect
       style="fill:#225577;fill-opacity:1;stroke:none"
       id="rect3918"
       width="40.729927"
       height="40.072994"
       x="-184.41374"
       y="65.970261" />
    <rect
       y="112.93376"
       x="-184.41374"
       height="40.072994"
       width="40.729927"
       id="rect3920"
       style="fill:#99cc00;fill-opacity:1;stroke:none" />
    <rect
       style="fill:#ff7b24;fill-opacity:1;stroke:none"
       id="rect3953"
       width="40.729927"
       height="40.072994"
       x="-184.41374"
       y="159.89726" />
    <rect
       y="21.422531"
       x="-184.41374"
       height="40.072994"
       width="40.729927"
       id="rect4062"
       style="fill:#dddddd;fill-opacity:1;stroke:none" />
    <path
       inkscape:connector-curvature="0"
       style="font-size:medium;font-style:normal;font-variant:normal;font-weight:normal;font-stretch:normal;text-indent:0;text-align:start;text-decoration:none;line-height:normal;letter-spacing:normal;word-spacing:normal;text-transform:none;direction:ltr;block-progression:tb;writing-mode:lr-tb;text-anchor:start;baseline-shift:baseline;color:#000000;fill:#eeeeee;fill-opacity:1;fill-rule:nonzero;stroke:none;stroke-width:10;marker:none;visibility:visible;display:inline;overflow:visible;enable-background:accumulate;font-family:Sans;-inkscape-font-specification:Sans"
       d="m -16.704762,-25.975679 -0.450388,0.21933 -4.447569,2.217711 0,0.0243 1.069676,0.536143 1.041512,0.536152 17.5369281,8.773333 0,16.3281612 -17.5369281,8.7489658 -1.041512,0.536148 -1.069676,0.536149 4.926102,2.46141 17.1991394,-8.6027508 17.1709896,8.6027448 4.954253,-2.461407 -1.069668,-0.53615 -1.069668,-0.536148 -17.5369295,-8.7489658 0,-16.3281612 17.5369295,-8.773334 1.069668,-0.53615 1.069668,-0.536144 -4.222374,-2.120228 -0.703729,-0.341185 -17.1991396,8.60275 -17.2272844,-8.60275 z m 144.039262,0 -0.42223,0.21933 -4.47572,2.217711 0,0.0243 1.06967,0.536143 1.06966,0.536152 17.50879,8.773333 0,16.3281612 -17.50879,8.7489658 -1.06966,0.536148 -1.06967,0.536149 4.9261,2.46141 17.19914,-8.6027078 17.19914,8.6027458 4.9261,-2.461409 -1.06967,-0.536149 -1.06967,-0.536147 -17.53692,-8.7489698 0,-16.3281542 17.53692,-8.773336 1.06967,-0.53615 1.06967,-0.536143 -4.22237,-2.12023 -0.70373,-0.341186 -17.19914,8.602746 -17.22729,-8.602746 z m -30.513677,6.458143 -4.897971,2.461414 0,17.18111812 -17.199133,8.60274708 0,4.9228188 1.041518,-0.536149 1.069668,-0.536148 17.536928,-8.7489698 16.326507,8.1640798 0.0281,17.522304 0,1.072296 0,1.072305 4.22237,-2.120228 0.70373,-0.341183 0,-17.205494 17.19919,-8.6027458 0,-0.463038 0,-4.435412 0,-0.02434 -1.06967,0.53615192 -1.06967,0.536147 -17.53693,8.74896808 -16.354657,-8.16411708 0,-17.52231112 0,-1.072304 0,-1.047919 z m -49.092154,0.121852 0,1.072293 -0.02811,1.072306 0,17.52230512 -16.326514,8.16407908 -17.536926,-8.77333708 -1.069672,-0.511779 -1.041518,-0.53614802 0,4.9228171 17.19914,8.6027448 -0.02815,17.181121 4.954253,2.46141 -0.02811,-1.047931 0,-1.072295 0,-17.522305 16.354664,-8.1640788 17.536928,8.7489688 1.069667,0.536149 1.069668,0.536148 0,-4.2160757 0,-0.7067421 -17.227286,-8.60274608 0,-17.20548412 -0.422237,-0.219336 -4.475717,-2.242084 z m 2.448977,20.8854222 0.619282,0.316816 -0.619282,-0.292443 0,-0.02434 z m 4.926104,8.8464498 -0.450387,0.219335 -4.475717,2.217705 0,0.02432 1.069668,0.536149 1.069668,0.511778 17.536928,8.773341 0,16.352529 -17.536928,8.748973 -1.069668,0.53615 -1.069668,0.53614 4.926104,2.46141 17.199137,-8.60275 17.199143,8.60275 4.926103,-2.46141 -1.06967,-0.53614 -1.06967,-0.53615 -17.536925,-8.748943 0,-16.352526 17.536925,-8.773334 1.06967,-0.511779 1.06967,-0.536149 L 90.20575,10.677363 89.50203,10.336177 72.302887,18.938928 55.10375,10.336183 z m -30.063307,5.751412 -4.926103,2.461409 0,17.18112 -17.1991375,8.602749 0,4.92281 1.069667,-0.53615 1.06967,-0.53614 17.5369275,-8.74897 16.326514,8.16408 0,17.52232 0,1.07228 0,1.0723 4.222375,-2.12022 0.703729,-0.34118 0,-17.2055 17.227286,-8.60274 0,-0.43867 0,-4.459782 -0.02811,0 -1.069669,0.511771 -1.041518,0.536152 -17.565078,8.748969 -16.326514,-8.164079 0,-17.522305 0,-1.072298 0,-1.047926 z m 144.039267,0 -4.92611,2.461409 0,17.18112 -17.17099,8.602749 -0.028,4.92281 1.06965,-0.53615 1.06967,-0.53614 17.53693,-8.74897 16.32651,8.16408 0.0281,17.52232 -0.0281,1.07228 0,1.0723 4.22238,-2.12022 0.70373,-0.34118 0,-17.2055 17.22729,-8.60274 0,-0.43867 0,-4.459782 -1.06967,0.511771 -1.06966,0.536152 -17.53693,8.748969 -16.35468,-8.164079 0,-17.522305 0,-1.072298 0,-1.047926 z m -193.131403,0.146222 -0.02816,1.047927 0,1.072297 0,17.522305 -16.326516,8.164087 -17.536927,-8.748977 -1.069664,-0.536144 -1.06967,-0.536151 0,4.922812 17.199137,8.60275 0,17.18113 4.926097,2.46141 0,-1.04794 0,-1.07229 0,-17.52231 16.32652,-8.16407 17.5369276,8.74896 1.0696669,0.53615 1.0696663,0.53615 0,-4.21608 0,-0.70674 -17.1991288,-8.602747 0,-17.20549 -0.450399,-0.219333 -4.447565,-2.217706 z m 144.039263,0 -0.0281,1.047927 0,1.072297 0,17.522305 -16.32653,8.164087 -17.536922,-8.748977 -1.06967,-0.536144 -1.069664,-0.536151 0,4.922812 17.199126,8.60275 0,17.18113 4.95426,2.46141 -0.0281,-1.04794 0,-1.07229 0,-17.52231 16.35467,-8.16407 17.53692,8.74896 1.06967,0.53615 1.04152,0.53615 0,-4.21608 0.0281,-0.70674 -17.22728,-8.602747 0,-17.20549 -0.45039,-0.219333 -4.44756,-2.217706 z m -141.590289,2.120224 0,18.131569 0,0.633629 -0.02816,0 0,-0.633629 0.02816,-18.131569 z m 63.588959,27.709122 -0.591131,0.31682 0,0.60926 0,18.13158 -0.02811,-18.13158 0.02811,-0.60926 0,-0.0243 0.591131,-0.29245 z m 144.06741,0 -0.61928,0.31682 0,-0.0243 0.61928,-0.29245 z m -58.71915,0.43868 -0.42223,0.21933 -4.47572,2.21771 0,0.0243 1.06967,0.53615 1.06966,0.53614 17.50879,8.77334 0,16.32816 -17.50879,8.74897 -1.06966,0.53615 -1.06967,0.53615 4.9261,2.46141 17.19914,-8.60271 17.19914,8.60276 4.9261,-2.46143 -1.06967,-0.53613 -1.06967,-0.53616 -17.53692,-8.74897 0,-16.32816 17.53692,-8.77334 1.06967,-0.53614 1.06967,-0.53615 -4.22237,-2.12022 -0.70373,-0.34119 -17.19914,8.60275 -17.22729,-8.60275 z m -144.067413,0.41429 -0.450385,0.21934 -4.44757,2.2177 0,0.0243 1.041522,0.53614 1.069667,0.53615 17.5369273,8.77334 0,16.32816 -17.5369273,8.74897 -1.069667,0.53615 -1.041522,0.53615 4.926106,2.4614 17.1991362,-8.60275 17.1709898,8.60275 4.954253,-2.4614 -1.069669,-0.53615 -1.069669,-0.53615 -17.5369315,-8.74897 0,-16.32816 17.5369315,-8.77334 1.069669,-0.53615 1.069669,-0.53614 -4.222375,-2.12022 -0.70373,-0.34119 -17.1991378,8.60275 -17.2272872,-8.60275 z m 113.553736,5.48333 -4.897971,2.46141 0,17.18113 -17.199133,8.60274 0,4.92282 1.041518,-0.53615 1.069668,-0.53615 17.536928,-8.74897 16.326507,8.16408 0.0281,17.522322 0,1.0723 0,1.07228 4.22237,-2.12021 0.70373,-0.34119 0,-17.205502 17.19919,-8.60274 0,-0.46303 0,-4.43542 0,-0.0244 -1.06967,0.53615 -1.06967,0.53615 -17.53693,8.74897 -16.354657,-8.16412 0,-17.52231 0,-1.0723 0,-1.04793 z m -49.092154,0.12186 0,1.07229 -0.02811,1.0723 0,17.5223 -16.326514,8.16409 -17.536926,-8.77333 -1.069672,-0.51178 -1.041518,-0.53615 0,4.92282 17.19914,8.60274 -0.02815,17.181112 4.954253,2.46142 -0.02811,-1.04792 0,-1.0723 0,-17.522312 16.354664,-8.18845 17.536928,8.77334 1.069667,0.53615 1.069668,0.53615 0,-4.21609 0,-0.70673 -17.227286,-8.60276 0,-17.20548 -0.422235,-0.21934 -4.475717,-2.24207 z m 7.375081,30.3655 -0.450387,0.21934 -4.475717,2.21769 0,0.0244 1.069668,0.53616 1.069668,0.53614 17.536928,8.77334 0,16.328162 -17.536928,8.74896 -1.069668,0.53615 -1.069668,0.53616 4.926104,2.4614 17.199137,-8.60275 17.199143,8.60275 4.926103,-2.4614 -1.06967,-0.53616 -1.06967,-0.53615 -17.536925,-8.74892 0,-16.328152 17.536925,-8.77335 1.06967,-0.53615 1.06967,-0.53615 -4.222383,-2.12022 -0.70372,-0.34118 -17.199143,8.60273 -17.199137,-8.60275 z m 113.97596,5.6783 -4.92611,2.46141 0,17.181112 -17.17099,8.60275 -0.028,4.92283 1.06965,-0.53616 1.06967,-0.53614 17.53693,-8.74897 16.32651,8.16408 0.0281,17.5223 0,1.07229 -0.0281,1.0723 4.22238,-2.12021 0.70373,-0.3412 0,-17.20548 17.22729,-8.60275 0,-0.43867 0,-4.45978 -1.06967,0.51178 -1.06966,0.53616 -17.53693,8.74896 -16.35468,-8.16409 0,-17.522302 0,-1.07229 0,-1.04793 z m -49.09214,0.14622 -0.0281,1.04793 0,1.07229 0,17.522322 -16.32653,8.16407 -17.536922,-8.74897 -1.06967,-0.53615 -1.069664,-0.53614 0,4.92281 17.199126,8.60275 0,17.18112 4.92611,2.4614 0,-1.04792 0,-1.0723 0,-17.5223 16.35466,-8.16408 17.53693,8.74896 1.06967,0.53616 1.04152,0.53614 0,-4.21606 0.028,-0.70675 -17.22729,-8.60274 0,-17.205492 -0.45038,-0.21935 -4.44757,-2.2177 z m -94.975276,0.26808 -4.926102,2.4614 0,17.181132 -17.1991375,8.60273 0,4.92282 1.069663,-0.53614 1.069677,-0.53615 17.5087745,-8.74896 16.354662,8.16407 0,17.52232 0,1.07228 0,1.0723 4.222375,-2.12022 0.703729,-0.34119 0,-17.20549 17.199138,-8.60275 0.02811,-0.43866 -0.02811,-4.45978 -1.069668,0.51178 -1.041519,0.53615 -17.565077,8.74896 -16.326515,-8.16407 0,-17.522322 0,-1.07229 0,-1.04792 z m -49.120284,0.14622 0,1.04792 0,1.07229 0,17.522332 -16.354664,8.16406 -17.50878,-8.74896 -1.069676,-0.53615 -1.069664,-0.53614 0,4.92281 17.199139,8.60274 0,17.18113 4.926103,2.4614 0,-1.04792 0,-1.0723 0,-17.52231 16.326516,-8.16407 17.5369279,8.74897 1.0696671,0.53614 1.0696693,0.53616 0,-4.21608 0,-0.70676 -17.1991353,-8.60272 0,-17.205512 -0.450385,-0.21933 -4.447573,-2.2177 -0.02816,0 z m 2.477122,2.12021 0,18.131592 0,0.63362 -0.02816,0 0,-0.60926 0.02816,-18.155952 z m 4.926106,27.246092 -0.450388,0.21935 -4.447569,2.24208 1.069676,0.53614 1.041512,0.53615 17.5369281,8.77334 0,16.32815 -17.5369281,8.77334 -1.041512,0.51177 -1.069676,0.53616 4.926102,2.46141 17.1991394,-8.60275 17.1709896,8.60275 4.954253,-2.46141 -1.069668,-0.53616 -1.069668,-0.51177 -17.5369295,-8.77334 0,-16.32815 17.5369295,-8.77334 1.069668,-0.53615 1.069668,-0.53614 -4.222374,-2.09586 -0.703729,-0.36557 -17.1991396,8.60276 -17.2272844,-8.60276 z m 144.039262,0 -0.42223,0.21935 -4.47572,2.24208 1.06967,0.53614 1.06966,0.53615 17.50879,8.77334 0,16.32815 -17.50879,8.77334 -1.06966,0.51177 -1.06967,0.53616 4.9261,2.46141 17.19914,-8.60275 17.19914,8.60275 4.9261,-2.46141 -1.06967,-0.53616 -1.06967,-0.51177 -17.53692,-8.77334 0,-16.32815 17.53692,-8.77334 1.06967,-0.53615 1.06967,-0.53614 -4.22237,-2.09586 -0.70373,-0.36557 -17.19914,8.60276 -17.22729,-8.60276 z m 58.71915,0.0488 -0.61928,0.31682 0,-0.0243 0.61928,-0.29246 z m -144.095558,0.41429 -0.591133,0.31683 0,0.60924 0,18.13158 -0.02811,-18.13158 0,-0.63361 0.619282,-0.29246 z m -60.211061,1.21852 18.1562131,9.06579 0.6192783,0.31682 0.6192846,-0.31682 18.128059,-9.06579 -18.128059,9.09016 -0.6192846,0.29245 -0.6192783,-0.29245 -18.1562131,-9.09016 z m 144.039269,0 18.1562,9.06579 0.61929,0.31682 0.61928,-0.31682 18.12806,-9.06579 -18.12806,9.09016 -0.61928,0.29245 -0.61929,-0.29245 -18.1562,-9.09016 z m -28.965477,4.7766 -4.897971,2.46141 0,17.18111 -17.199133,8.60277 0,4.9228 1.041518,-0.53614 1.069668,-0.53615 17.536928,-8.74897 16.326507,8.16409 0.0281,17.52229 0,1.0723 0,1.0723 4.22237,-2.12022 0.70373,-0.3412 0,-17.20547 17.19919,-8.60276 0,-0.43865 0,-4.45979 -1.06967,0.51178 -1.06967,0.53614 -17.53693,8.74897 -16.354657,-8.16409 0,-17.5223 0,-1.07229 0,-1.04793 z m -49.092154,0.14622 0,1.04793 -0.02811,1.0723 0,17.52232 -16.326514,8.16406 -17.536926,-8.74895 -1.069672,-0.53617 -1.041518,-0.53614 0,4.92281 17.19914,8.60276 -0.02815,17.18111 4.954253,2.46142 -0.02811,-1.04794 0,-1.07229 0,-17.5223 16.354664,-8.16409 17.536928,8.74896 1.069667,0.53615 1.069668,0.53616 0,-4.21608 0,-0.70674 -17.227286,-8.60273 0,-17.20551 -0.422237,-0.21934 -4.475717,-2.2177 z m 66.066091,29.82936 -0.61928,0.31681 0,-0.0242 0.61928,-0.29246 z m -58.69101,0.29244 -0.450387,0.21934 -4.475717,2.24206 1.069668,0.53615 1.069668,0.53614 17.536928,8.77335 0,16.32817 4.897958,0 0,-16.32817 17.536925,-8.77335 1.06967,-0.53614 1.06967,-0.53615 -4.222383,-2.09584 -0.70372,-0.36561 -17.199143,8.60276 -17.199137,-8.60276 z m 16.579855,10.77171 0.619282,0.29244 0.619281,-0.29244 -0.619281,0.31682 -0.619282,-0.31682 z"
       id="path3041"
       inkscape:export-xdpi="90"
       inkscape:export-ydpi="90" />
    <rect
       style="fill:#eeeeee;fill-opacity:1;stroke:none"
       id="rect3014"
       width="40.729927"
       height="40.072994"
       x="-184.41374"
       y="-23.832302" />
  </g>
</svg>
