<?xml version="1.0" encoding="UTF-8" standalone="no"?>
<!-- Created with Inkscape (http://www.inkscape.org/) -->

<svg
   xmlns:dc="http://purl.org/dc/elements/1.1/"
   xmlns:cc="http://creativecommons.org/ns#"
   xmlns:rdf="http://www.w3.org/1999/02/22-rdf-syntax-ns#"
   xmlns:svg="http://www.w3.org/2000/svg"
   xmlns="http://www.w3.org/2000/svg"
   xmlns:xlink="http://www.w3.org/1999/xlink"
   xmlns:sodipodi="http://sodipodi.sourceforge.net/DTD/sodipodi-0.dtd"
   xmlns:inkscape="http://www.inkscape.org/namespaces/inkscape"
   width="200"
   height="300"
   id="svg4593"
   version="1.1"
   inkscape:version="0.48.5 r10040"
   sodipodi:docname="climbo-200.svg">
  <defs
     id="defs4595">
    <linearGradient
       inkscape:collect="always"
       xlink:href="#linearGradient3904"
       id="linearGradient5470"
       gradientUnits="userSpaceOnUse"
       gradientTransform="matrix(0.43479732,0,0,0.43479732,-341.45493,665.05586)"
       x1="1025.4833"
       y1="637.61279"
       x2="1025.4833"
       y2="181.87138" />
    <linearGradient
       id="linearGradient3904">
      <stop
         id="stop3906"
         offset="0"
         style="stop-color:#0069b3;stop-opacity:1;" />
      <stop
         id="stop3908"
         offset="1"
         style="stop-color:#c7e0f7;stop-opacity:1" />
    </linearGradient>
  </defs>
  <sodipodi:namedview
     id="base"
     pagecolor="#ffffff"
     bordercolor="#666666"
     borderopacity="1.0"
     inkscape:pageopacity="0.0"
     inkscape:pageshadow="2"
     inkscape:zoom="1.4"
     inkscape:cx="192.16367"
     inkscape:cy="117.36675"
     inkscape:document-units="px"
     inkscape:current-layer="text3820"
     showgrid="false"
     inkscape:snap-global="false"
     inkscape:window-width="1242"
     inkscape:window-height="964"
     inkscape:window-x="1280"
     inkscape:window-y="0"
     inkscape:window-maximized="1">
    <inkscape:grid
       type="xygrid"
       id="grid4628"
       empspacing="5"
       visible="true"
       enabled="true"
       snapvisiblegridlinesonly="true" />
  </sodipodi:namedview>
  <metadata
     id="metadata4598">
    <rdf:RDF>
      <cc:Work
         rdf:about="">
        <dc:format>image/svg+xml</dc:format>
        <dc:type
           rdf:resource="http://purl.org/dc/dcmitype/StillImage" />
        <dc:title />
      </cc:Work>
    </rdf:RDF>
  </metadata>
  <g
     inkscape:label="Layer 1"
     inkscape:groupmode="layer"
     id="layer1"
     transform="translate(0,-752.36218)">
    <g
       style="font-size:52.80892944px;font-style:normal;font-weight:bold;fill:#ad0009;fill-opacity:1;stroke:none;display:inline;filter:url(#filter4296);font-family:Bitstream Vera Sans;-inkscape-font-specification:OpenSymbol Bold"
       id="text3820">
      <path
         d="m 32.853529,1049.435 c -1.822217,0.9455 -3.721755,1.6589 -5.69862,2.1402 -1.976925,0.4814 -4.039771,0.722 -6.188547,0.722 -6.412038,0 -11.4917986,-1.7878 -15.2392952,-5.3634 -3.7475132,-3.5928 -5.62126567,-8.4577 -5.62126304,-14.5946 -2.63e-6,-6.1542 1.87374984,-11.0191 5.62126304,-14.5947 3.7474966,-3.5928 8.8272572,-5.3891 15.2392952,-5.3892 2.148776,10e-5 4.211622,0.2407 6.188547,0.722 1.976865,0.4814 3.876403,1.1948 5.69862,2.1402 l 0,7.9678 c -1.839407,-1.2549 -3.652994,-2.1746 -5.440764,-2.7591 -1.787831,-0.5844 -3.670178,-0.8767 -5.647049,-0.8767 -3.541244,0 -6.326087,1.1346 -8.354537,3.4037 -2.028482,2.2692 -3.042715,5.3978 -3.042702,9.386 -1.3e-5,3.971 1.01422,7.091 3.042702,9.3601 2.02845,2.2692 4.813293,3.4037 8.354537,3.4037 1.976871,0 3.859218,-0.2922 5.647049,-0.8767 1.78777,-0.5844 3.601357,-1.5041 5.440764,-2.759 l 0,7.9677"
         style="font-variant:normal;font-stretch:normal;fill:#ad0009;font-family:OpenSymbol;-inkscape-font-specification:OpenSymbol Bold"
         id="path2995" />
      <path
         d="m 40.692355,1011.427 9.231249,0 0,40.1224 -9.231249,0 0,-40.1224"
         style="font-variant:normal;font-stretch:normal;fill:#ad0009;font-family:OpenSymbol;-inkscape-font-specification:OpenSymbol Bold"
         id="path2997" />
      <path
         d="m 58.845424,1022.6696 9.231248,0 0,28.8798 -9.231248,0 0,-28.8798 m 0,-11.2426 9.231248,0 0,7.5294 -9.231248,0 0,-7.5294"
         style="font-variant:normal;font-stretch:normal;fill:#ad0009;font-family:OpenSymbol;-inkscape-font-specification:OpenSymbol Bold"
         id="path2999" />
      <path
         d="m 103.76395,1027.4657 c 1.16892,-1.7878 2.55274,-3.1458 4.15149,-4.0741 1.61586,-0.9455 3.38647,-1.4182 5.31183,-1.4183 3.31771,10e-5 5.84469,1.0229 7.58097,3.0685 1.73618,2.0457 2.6043,5.0197 2.60435,8.9219 l 0,17.5857 -9.28282,0 0,-15.0588 c 0.0172,-0.2234 0.0257,-0.4555 0.0258,-0.6962 0.0172,-0.2406 0.0257,-0.5844 0.0258,-1.0314 -4e-5,-2.0456 -0.30087,-3.524 -0.9025,-4.4351 -0.6017,-0.9283 -1.57296,-1.3924 -2.91377,-1.3924 -1.75346,0 -3.1115,0.722 -4.07413,2.1659 -0.9455,1.4441 -1.43543,3.5327 -1.46978,6.266 l 0,14.182 -9.282818,0 0,-15.0588 c -2.3e-5,-3.1974 -0.275069,-5.2516 -0.825139,-6.1627 -0.550115,-0.9283 -1.529967,-1.3924 -2.93956,-1.3924 -1.770629,0 -3.137265,0.7306 -4.099912,2.1917 -0.962677,1.444 -1.444008,3.5155 -1.443994,6.2144 l 0,14.2078 -9.282819,0 0,-28.8798 9.282819,0 0,4.2288 c 1.134552,-1.6331 2.432427,-2.8622 3.893627,-3.6873 1.478356,-0.8252 3.102848,-1.2377 4.873481,-1.2378 1.994062,10e-5 3.756077,0.4814 5.286045,1.444 1.52992,0.9627 2.69027,2.3122 3.48106,4.0484"
         style="font-variant:normal;font-stretch:normal;fill:#ad0009;font-family:OpenSymbol;-inkscape-font-specification:OpenSymbol Bold"
         id="path3001" />
      <path
         d="m 147.44478,1045.593 c 1.97687,0 3.48103,-0.722 4.51248,-2.166 1.04859,-1.444 1.57289,-3.5412 1.57292,-6.2917 -3e-5,-2.7505 -0.52433,-4.8477 -1.57292,-6.2917 -1.03145,-1.444 -2.53561,-2.166 -4.51248,-2.166 -1.97692,0 -3.49827,0.7306 -4.56406,2.1918 -1.04863,1.444 -1.57293,3.5326 -1.57292,6.2659 -10e-6,2.7333 0.52429,4.8305 1.57292,6.2917 1.06579,1.444 2.58714,2.166 4.56406,2.166 m -6.13698,-18.6946 c 1.27208,-1.6846 2.68169,-2.9223 4.22884,-3.7131 1.54712,-0.808 3.32632,-1.2119 5.33762,-1.212 3.55839,10e-5 6.48076,1.4183 8.76711,4.2547 2.28629,2.8192 3.42945,6.455 3.42949,10.9073 -4e-5,4.4523 -1.1432,8.0967 -3.42949,10.9331 -2.28635,2.8192 -5.20872,4.2288 -8.76711,4.2288 -2.0113,0 -3.7905,-0.3954 -5.33762,-1.1861 -1.54715,-0.808 -2.95676,-2.0543 -4.22884,-3.7389 l 0,4.1772 -9.23125,0 0,-40.1224 9.23125,0 0,15.4714"
         style="font-variant:normal;font-stretch:normal;fill:#ad0009;font-family:OpenSymbol;-inkscape-font-specification:OpenSymbol Bold"
         id="path3003" />
      <path
         d="m 183.67357,1028.5745 c -2.04567,0 -3.61,0.7392 -4.69298,2.2175 -1.06582,1.4612 -1.59872,3.5756 -1.59871,6.3433 -1e-5,2.7676 0.53289,4.8907 1.59871,6.369 1.08298,1.4612 2.64731,2.1918 4.69298,2.1918 2.01126,0 3.5498,-0.7306 4.61562,-2.1918 1.06579,-1.4783 1.59869,-3.6014 1.59871,-6.369 -2e-5,-2.7677 -0.53292,-4.8821 -1.59871,-6.3433 -1.06582,-1.4783 -2.60436,-2.2175 -4.61562,-2.2175 m 0,-6.6012 c 4.968,10e-5 8.84444,1.3409 11.62931,4.0226 2.802,2.6817 4.20302,6.3948 4.20305,11.1394 -3e-5,4.7445 -1.40105,8.4577 -4.20305,11.1394 -2.78487,2.6817 -6.66131,4.0225 -11.62931,4.0225 -4.98523,0 -8.88745,-1.3408 -11.70667,-4.0225 -2.80204,-2.6817 -4.20305,-6.3949 -4.20305,-11.1394 0,-4.7446 1.40101,-8.4577 4.20305,-11.1394 2.81922,-2.6817 6.72144,-4.0225 11.70667,-4.0226"
         style="font-variant:normal;font-stretch:normal;fill:#ad0009;font-family:OpenSymbol;-inkscape-font-specification:OpenSymbol Bold"
         id="path3005" />
    </g>
    <path
       inkscape:connector-curvature="0"
       style="fill:url(#linearGradient5470);fill-opacity:1;stroke:#0069b3;stroke-width:2.81276774;stroke-linecap:round;stroke-linejoin:round;stroke-miterlimit:4;stroke-opacity:1;stroke-dasharray:none;display:inline"
       d="m 99.79698,793.50523 c -12.361604,0 -23.929166,3.35654 -33.85863,9.21183 0.318069,0.64441 0.610597,1.35197 0.861384,2.10957 l 6.381496,26.01811 72.92099,-18.68733 C 134.0984,800.60555 117.77208,793.50523 99.79698,793.50523 z m -48.397152,20.77933 c -11.383276,11.97513 -18.370864,28.16225 -18.370864,45.98875 0,9.76626 2.42179,20.44871 6.557243,32.04799 L 53.12265,868.76437 c 3.011351,-5.02255 7.360056,-6.29723 12.587137,-5.11573 l 17.421547,8.63168 0,-26.26422 -14.222026,3.88513 c -5.016514,0.42445 -9.400551,-2.20513 -10.635751,-7.26045 l -6.873729,-28.35622 z m 106.111662,12.39377 c -0.1353,0.0479 -0.26389,0.0972 -0.40437,0.14063 l -41.69929,12.90357 -0.2285,38.99199 30.81736,45.49652 c 12.24116,-24.49591 20.58597,-45.91368 20.58597,-63.93773 0,-12.25284 -3.31101,-23.72423 -9.07117,-33.59498 z m -93.454204,56.50146 c 0,0 -9.440099,16.34944 -16.419534,28.65506 12.997462,28.21363 32.87703,61.13889 52.159228,99.06215 12.85042,-25.26524 26.17646,-48.62709 37.51535,-69.93239 l -36.61876,-47.53579 c -6.262221,3.77375 -13.340605,3.09876 -17.896226,0.31644 l -6.012292,-3.67417 0.281283,76.54241 -7.102239,-13.16723 0,-66.00491 -5.90681,-4.26157 z"
       id="path3978"
       sodipodi:nodetypes="cccccccscccccccccccccscccccccccccc"
       inkscape:export-filename="/home/z4k/Scrivania/logo.png"
       inkscape:export-xdpi="86.507683"
       inkscape:export-ydpi="86.507683" />
    <path
       inkscape:connector-curvature="0"
       style="fill:#88bae1;fill-opacity:1;stroke:none;display:inline"
       d="m 156.18279,827.44374 -39.56596,12.13145 -0.5975,26.15208 6.41694,-3.59313 2.98199,3.81538 5.59571,-10.9646 1.10599,2.68559 0.97299,-1.17001 4.56084,7.7931 9.53304,-16.16157 1.85322,3.53756 3.75965,-7.92711 12.23347,16.96551 c 0.20898,-12.17691 -3.04224,-23.55989 -8.85038,-33.26425 z"
       id="path4109"
       inkscape:transform-center-x="24.510495"
       inkscape:transform-center-y="-13.524706"
       sodipodi:nodetypes="cccccccccccccc"
       inkscape:export-filename="/home/z4k/Scrivania/logo.png"
       inkscape:export-xdpi="86.507683"
       inkscape:export-ydpi="86.507683" />
    <path
       inkscape:connector-curvature="0"
       style="fill:#88bae1;fill-opacity:1;stroke:none;display:inline"
       d="m 50.959458,816.7478 c -10.233013,11.79324 -16.42454,27.09456 -16.42454,43.8188 l 8.944719,0.33079 2.46061,2.60733 6.73787,-7.45232 4.27693,3.50239 7.749344,-4.02675 19.764136,9.0673 0.140641,-19.26414 -15.799541,4.30016 c -0.696668,0.0586 -1.381747,0.0653 -2.050564,0.0194 -0.668933,-0.0458 -1.322737,-0.14428 -1.953022,-0.29187 -0.945486,-0.22135 -1.84737,-0.54991 -2.675616,-0.99233 -0.552089,-0.29496 -1.075824,-0.64155 -1.562322,-1.03126 -0.246968,-0.19782 -0.475189,-0.40097 -0.703024,-0.62266 -0.225246,-0.21773 -0.439193,-0.44043 -0.64458,-0.68101 -0.204991,-0.24084 -0.402,-0.49554 -0.585837,-0.75885 -0.736718,-1.05236 -1.297475,-2.27866 -1.640517,-3.67751 l -6.034687,-24.84752 0,-10e-6 z"
       id="path4188"
       sodipodi:nodetypes="ccccccccccsssssssccc"
       inkscape:export-filename="/home/z4k/Scrivania/logo.png"
       inkscape:export-xdpi="86.507683"
       inkscape:export-ydpi="86.507683" />
    <path
       inkscape:connector-curvature="0"
       style="fill:none;stroke:#0169b4;stroke-width:2.81276774;stroke-linecap:round;stroke-linejoin:round;stroke-miterlimit:4;stroke-opacity:1;stroke-dasharray:none;display:inline"
       d="m 115.18474,878.71501 0.23087,-38.99588 41.68616,-12.89447 c 10.3911,-3.21515 6.58666,-19.07096 -4.94574,-16.2126 l -78.967321,20.22681 -6.386107,-26.01992 c -4.11232,-12.42251 -18.046493,-9.51839 -16.457111,5.06221 l 1.06e-4,0 7.93499,32.75926 c 1.235254,5.05531 5.608826,7.6937 10.62534,7.26925 l 14.226081,-3.886 0,26.2509"
       id="path3982"
       sodipodi:nodetypes="cccccccccccc"
       inkscape:export-filename="/home/z4k/Scrivania/logo.png"
       inkscape:export-xdpi="86.507683"
       inkscape:export-ydpi="86.507683" />
    <path
       inkscape:connector-curvature="0"
       style="fill:#fda238;fill-opacity:1;stroke:#0169b4;stroke-width:2.81276774;stroke-linecap:round;stroke-linejoin:round;stroke-miterlimit:4;stroke-opacity:1;stroke-dasharray:none;display:inline"
       d="m 99.805753,779.18403 c -10.755454,0 -19.471823,8.73052 -19.471823,19.486 0,10.75545 8.716369,19.47185 19.471823,19.47185 10.755567,0 19.471957,-8.71639 19.471957,-19.47185 0,-10.75548 -8.71639,-19.486 -19.471957,-19.486 z"
       id="path3980"
       inkscape:export-filename="/home/z4k/Scrivania/logo.png"
       inkscape:export-xdpi="86.507683"
       inkscape:export-ydpi="86.507683" />
  </g>
</svg>
